<mxfile host="app.diagrams.net" agent="Mozilla/5.0 (Macintosh; Intel Mac OS X 10_15_7) AppleWebKit/537.36 (KHTML, like Gecko) Chrome/131.0.0.0 Safari/537.36" version="26.0.10">
  <diagram name="第 1 页" id="fIxhdMdnYTaUpzPp3vKk">
    <mxGraphModel dx="613" dy="312" grid="1" gridSize="10" guides="1" tooltips="1" connect="1" arrows="1" fold="1" page="1" pageScale="1" pageWidth="827" pageHeight="1169" math="0" shadow="0">
      <root>
        <mxCell id="0" />
        <mxCell id="1" parent="0" />
        <mxCell id="ODvfvK-Vzm__knQPuGtE-5" value="" style="shape=cube;whiteSpace=wrap;html=1;boundedLbl=1;backgroundOutline=1;darkOpacity=0.05;darkOpacity2=0.1;flipH=1;shadow=0;fillColor=default;gradientColor=none;fillStyle=hatch;size=20;aspect=fixed;fontSize=9;fontFamily=Times New Roman;" vertex="1" parent="1">
          <mxGeometry x="180" y="80" width="50" height="60" as="geometry" />
        </mxCell>
        <mxCell id="ODvfvK-Vzm__knQPuGtE-6" value="" style="shape=cube;whiteSpace=wrap;html=1;boundedLbl=1;backgroundOutline=1;darkOpacity=0.05;darkOpacity2=0.1;flipH=1;shadow=0;fillColor=default;gradientColor=none;fillStyle=hatch;aspect=fixed;fontSize=9;fontFamily=Times New Roman;" vertex="1" parent="1">
          <mxGeometry x="280" y="80" width="60" height="60" as="geometry" />
        </mxCell>
        <mxCell id="ODvfvK-Vzm__knQPuGtE-7" value="" style="shape=cube;whiteSpace=wrap;html=1;boundedLbl=1;backgroundOutline=1;darkOpacity=0.05;darkOpacity2=0.1;flipH=1;shadow=0;fillColor=#f8cecc;fillStyle=auto;aspect=fixed;strokeColor=#b85450;fontFamily=Times New Roman;" vertex="1" parent="1">
          <mxGeometry x="518" y="76.01" width="24" height="63.98" as="geometry" />
        </mxCell>
        <mxCell id="ODvfvK-Vzm__knQPuGtE-8" value="&lt;div&gt;&lt;br&gt;&lt;/div&gt;&lt;div&gt;&lt;br&gt;&lt;/div&gt;&lt;div&gt;&lt;br&gt;&lt;/div&gt;&lt;div&gt;&lt;br&gt;&lt;/div&gt;&lt;div&gt;&lt;br&gt;&lt;/div&gt;&lt;div&gt;&lt;br&gt;&lt;/div&gt;" style="shape=cube;whiteSpace=wrap;html=1;boundedLbl=1;backgroundOutline=1;darkOpacity=0.05;darkOpacity2=0.1;flipH=1;shadow=0;fillColor=#ffe6cc;fillStyle=auto;aspect=fixed;strokeColor=#d79b00;fontFamily=Times New Roman;" vertex="1" parent="1">
          <mxGeometry x="522" y="76.01" width="24" height="63.98" as="geometry" />
        </mxCell>
        <mxCell id="ODvfvK-Vzm__knQPuGtE-14" value="&lt;div&gt;&lt;br&gt;&lt;/div&gt;&lt;div&gt;&lt;br&gt;&lt;/div&gt;&lt;div&gt;&lt;br&gt;&lt;/div&gt;&lt;div&gt;&lt;br&gt;&lt;/div&gt;&lt;div&gt;&lt;br&gt;&lt;/div&gt;&lt;div&gt;&lt;br&gt;&lt;/div&gt;" style="shape=cube;whiteSpace=wrap;html=1;boundedLbl=1;backgroundOutline=1;darkOpacity=0.05;darkOpacity2=0.1;flipH=1;shadow=0;fillColor=#dae8fc;fillStyle=auto;aspect=fixed;strokeColor=#6c8ebf;fontFamily=Times New Roman;" vertex="1" parent="1">
          <mxGeometry x="526" y="76.01" width="24" height="63.98" as="geometry" />
        </mxCell>
        <mxCell id="ODvfvK-Vzm__knQPuGtE-15" value="" style="shape=cube;whiteSpace=wrap;html=1;boundedLbl=1;backgroundOutline=1;darkOpacity=0.05;darkOpacity2=0.1;flipH=1;shadow=0;fillColor=#d5e8d4;fillStyle=auto;aspect=fixed;strokeColor=#82b366;fontFamily=Times New Roman;" vertex="1" parent="1">
          <mxGeometry x="530" y="76.01" width="24" height="63.98" as="geometry" />
        </mxCell>
        <mxCell id="ODvfvK-Vzm__knQPuGtE-16" value="&lt;div&gt;&lt;br&gt;&lt;/div&gt;&lt;div&gt;&lt;br&gt;&lt;/div&gt;&lt;div&gt;&lt;br&gt;&lt;/div&gt;&lt;div&gt;&lt;br&gt;&lt;/div&gt;&lt;div&gt;&lt;br&gt;&lt;/div&gt;&lt;div&gt;&lt;br&gt;&lt;/div&gt;" style="shape=cube;whiteSpace=wrap;html=1;boundedLbl=1;backgroundOutline=1;darkOpacity=0.05;darkOpacity2=0.1;flipH=1;shadow=0;fillColor=#ffe6cc;fillStyle=auto;aspect=fixed;strokeColor=#d79b00;fontFamily=Times New Roman;" vertex="1" parent="1">
          <mxGeometry x="534" y="76.01" width="24" height="63.98" as="geometry" />
        </mxCell>
        <mxCell id="ODvfvK-Vzm__knQPuGtE-17" value="&lt;div&gt;&lt;br&gt;&lt;/div&gt;&lt;div&gt;&lt;br&gt;&lt;/div&gt;&lt;div&gt;&lt;br&gt;&lt;/div&gt;&lt;div&gt;&lt;br&gt;&lt;/div&gt;&lt;div&gt;&lt;br&gt;&lt;/div&gt;&lt;div&gt;&lt;br&gt;&lt;/div&gt;" style="shape=cube;whiteSpace=wrap;html=1;boundedLbl=1;backgroundOutline=1;darkOpacity=0.05;darkOpacity2=0.1;flipH=1;shadow=0;fillColor=#e1d5e7;fillStyle=auto;aspect=fixed;strokeColor=#9673a6;fontFamily=Times New Roman;" vertex="1" parent="1">
          <mxGeometry x="538" y="76.01" width="24" height="63.98" as="geometry" />
        </mxCell>
        <mxCell id="ODvfvK-Vzm__knQPuGtE-18" value="" style="shape=cube;whiteSpace=wrap;html=1;boundedLbl=1;backgroundOutline=1;darkOpacity=0.05;darkOpacity2=0.1;flipH=1;shadow=0;fillColor=#60a917;fillStyle=auto;aspect=fixed;fontColor=#ffffff;strokeColor=#2D7600;fontFamily=Times New Roman;" vertex="1" parent="1">
          <mxGeometry x="542" y="76.01" width="24" height="63.98" as="geometry" />
        </mxCell>
        <mxCell id="ODvfvK-Vzm__knQPuGtE-19" value="&lt;div&gt;&lt;br&gt;&lt;/div&gt;&lt;div&gt;&lt;br&gt;&lt;/div&gt;&lt;div&gt;&lt;br&gt;&lt;/div&gt;&lt;div&gt;&lt;br&gt;&lt;/div&gt;&lt;div&gt;&lt;br&gt;&lt;/div&gt;&lt;div&gt;&lt;br&gt;&lt;/div&gt;" style="shape=cube;whiteSpace=wrap;html=1;boundedLbl=1;backgroundOutline=1;darkOpacity=0.05;darkOpacity2=0.1;flipH=1;shadow=0;fillColor=#f0a30a;fillStyle=auto;aspect=fixed;fontColor=#000000;strokeColor=#BD7000;fontFamily=Times New Roman;" vertex="1" parent="1">
          <mxGeometry x="546" y="76.01" width="24" height="63.98" as="geometry" />
        </mxCell>
        <mxCell id="ODvfvK-Vzm__knQPuGtE-20" value="&lt;div&gt;&lt;br&gt;&lt;/div&gt;&lt;div&gt;&lt;br&gt;&lt;/div&gt;&lt;div&gt;&lt;br&gt;&lt;/div&gt;&lt;div&gt;&lt;br&gt;&lt;/div&gt;&lt;div&gt;&lt;br&gt;&lt;/div&gt;&lt;div&gt;&lt;br&gt;&lt;/div&gt;" style="shape=cube;whiteSpace=wrap;html=1;boundedLbl=1;backgroundOutline=1;darkOpacity=0.05;darkOpacity2=0.1;flipH=1;shadow=0;fillColor=#fa6800;fillStyle=auto;aspect=fixed;fontColor=#000000;strokeColor=#C73500;fontFamily=Times New Roman;" vertex="1" parent="1">
          <mxGeometry x="550" y="76.01" width="24" height="63.98" as="geometry" />
        </mxCell>
        <mxCell id="ODvfvK-Vzm__knQPuGtE-24" value="" style="endArrow=classic;html=1;rounded=0;endFill=1;strokeWidth=0.7;startSize=6;endSize=4;strokeColor=default;align=center;verticalAlign=middle;fontFamily=Times New Roman;fontSize=9;fontColor=default;labelBackgroundColor=default;" edge="1" parent="1">
          <mxGeometry width="50" height="50" relative="1" as="geometry">
            <mxPoint x="237" y="116.85" as="sourcePoint" />
            <mxPoint x="273" y="116.85" as="targetPoint" />
          </mxGeometry>
        </mxCell>
        <mxCell id="ODvfvK-Vzm__knQPuGtE-26" value="" style="endArrow=classic;html=1;rounded=0;endFill=1;strokeWidth=0.5;startSize=6;endSize=4;fontSize=9;fontFamily=Times New Roman;" edge="1" parent="1">
          <mxGeometry width="50" height="50" relative="1" as="geometry">
            <mxPoint x="151" y="117" as="sourcePoint" />
            <mxPoint x="175" y="116.85" as="targetPoint" />
          </mxGeometry>
        </mxCell>
        <mxCell id="ODvfvK-Vzm__knQPuGtE-27" value="" style="endArrow=classic;html=1;rounded=0;endFill=1;strokeWidth=0.7;startSize=6;endSize=4;strokeColor=default;align=center;verticalAlign=middle;fontFamily=Times New Roman;fontSize=11;fontColor=default;labelBackgroundColor=default;" edge="1" parent="1">
          <mxGeometry width="50" height="50" relative="1" as="geometry">
            <mxPoint x="345" y="117" as="sourcePoint" />
            <mxPoint x="516" y="117" as="targetPoint" />
          </mxGeometry>
        </mxCell>
        <mxCell id="ODvfvK-Vzm__knQPuGtE-28" value="X" style="text;html=1;align=center;verticalAlign=middle;resizable=0;points=[];autosize=1;strokeColor=none;fillColor=none;fontSize=9;fontFamily=Times New Roman;" vertex="1" parent="1">
          <mxGeometry x="198" y="63" width="30" height="20" as="geometry" />
        </mxCell>
        <mxCell id="ODvfvK-Vzm__knQPuGtE-29" value="C&lt;sup&gt;&#39;&lt;/sup&gt;" style="text;html=1;align=center;verticalAlign=middle;resizable=0;points=[];autosize=1;strokeColor=none;fillColor=none;fontSize=9;fontFamily=Times New Roman;" vertex="1" parent="1">
          <mxGeometry x="180" y="133" width="30" height="30" as="geometry" />
        </mxCell>
        <mxCell id="ODvfvK-Vzm__knQPuGtE-30" value="H&lt;sup&gt;&#39;&lt;/sup&gt;" style="text;html=1;align=center;verticalAlign=middle;resizable=0;points=[];autosize=1;strokeColor=none;fillColor=none;fontSize=9;fontFamily=Times New Roman;" vertex="1" parent="1">
          <mxGeometry x="186" y="97" width="30" height="30" as="geometry" />
        </mxCell>
        <mxCell id="ODvfvK-Vzm__knQPuGtE-31" value="W&lt;sup&gt;&#39;&lt;/sup&gt;" style="text;html=1;align=center;verticalAlign=middle;resizable=0;points=[];autosize=1;strokeColor=none;fillColor=none;fontSize=9;fontFamily=Times New Roman;" vertex="1" parent="1">
          <mxGeometry x="215" y="116" width="30" height="30" as="geometry" />
        </mxCell>
        <mxCell id="ODvfvK-Vzm__knQPuGtE-32" value="F&lt;sub&gt;tr&lt;/sub&gt;" style="text;html=1;align=center;verticalAlign=middle;resizable=0;points=[];autosize=1;strokeColor=none;fillColor=none;fontSize=9;fontFamily=Times New Roman;" vertex="1" parent="1">
          <mxGeometry x="235" y="90" width="30" height="30" as="geometry" />
        </mxCell>
        <mxCell id="ODvfvK-Vzm__knQPuGtE-33" value="U" style="text;html=1;align=center;verticalAlign=middle;resizable=0;points=[];autosize=1;strokeColor=none;fillColor=none;fontSize=9;fontFamily=Times New Roman;" vertex="1" parent="1">
          <mxGeometry x="305" y="63" width="30" height="20" as="geometry" />
        </mxCell>
        <mxCell id="ODvfvK-Vzm__knQPuGtE-35" value="H" style="text;html=1;align=center;verticalAlign=middle;resizable=0;points=[];autosize=1;strokeColor=none;fillColor=none;fontSize=9;fontFamily=Times New Roman;" vertex="1" parent="1">
          <mxGeometry x="298" y="100" width="30" height="20" as="geometry" />
        </mxCell>
        <mxCell id="ODvfvK-Vzm__knQPuGtE-36" value="C" style="text;html=1;align=center;verticalAlign=middle;resizable=0;points=[];autosize=1;strokeColor=none;fillColor=none;fontSize=9;fontFamily=Times New Roman;" vertex="1" parent="1">
          <mxGeometry x="284" y="137" width="30" height="20" as="geometry" />
        </mxCell>
        <mxCell id="ODvfvK-Vzm__knQPuGtE-37" value="W" style="text;html=1;align=center;verticalAlign=middle;resizable=0;points=[];autosize=1;strokeColor=none;fillColor=none;fontSize=9;fontFamily=Times New Roman;" vertex="1" parent="1">
          <mxGeometry x="323" y="124" width="30" height="20" as="geometry" />
        </mxCell>
        <mxCell id="ODvfvK-Vzm__knQPuGtE-38" value="" style="endArrow=classic;html=1;rounded=0;endFill=1;strokeWidth=0.7;startSize=6;endSize=4;strokeColor=default;align=center;verticalAlign=middle;fontFamily=Times New Roman;fontSize=11;fontColor=default;labelBackgroundColor=default;" edge="1" parent="1">
          <mxGeometry width="50" height="50" relative="1" as="geometry">
            <mxPoint x="345" y="104.77" as="sourcePoint" />
            <mxPoint x="380" y="70" as="targetPoint" />
          </mxGeometry>
        </mxCell>
        <mxCell id="ODvfvK-Vzm__knQPuGtE-41" value="" style="shape=table;startSize=0;container=1;collapsible=0;childLayout=tableLayout;fontSize=15;spacingBottom=0;fontFamily=Times New Roman;" vertex="1" parent="1">
          <mxGeometry x="443" y="65" width="36" height="9" as="geometry" />
        </mxCell>
        <mxCell id="ODvfvK-Vzm__knQPuGtE-42" value="" style="shape=tableRow;horizontal=0;startSize=0;swimlaneHead=0;swimlaneBody=0;strokeColor=inherit;top=0;left=0;bottom=0;right=0;collapsible=0;dropTarget=0;fillColor=none;points=[[0,0.5],[1,0.5]];portConstraint=eastwest;fontSize=15;spacingBottom=0;fontFamily=Times New Roman;" vertex="1" parent="ODvfvK-Vzm__knQPuGtE-41">
          <mxGeometry width="36" height="9" as="geometry" />
        </mxCell>
        <mxCell id="ODvfvK-Vzm__knQPuGtE-43" value="" style="shape=partialRectangle;html=1;whiteSpace=wrap;connectable=0;strokeColor=#b85450;overflow=hidden;fillColor=#f8cecc;top=0;left=0;bottom=0;right=0;pointerEvents=1;fontSize=15;spacingBottom=0;fontFamily=Times New Roman;" vertex="1" parent="ODvfvK-Vzm__knQPuGtE-42">
          <mxGeometry width="4" height="9" as="geometry">
            <mxRectangle width="4" height="9" as="alternateBounds" />
          </mxGeometry>
        </mxCell>
        <mxCell id="ODvfvK-Vzm__knQPuGtE-44" value="" style="shape=partialRectangle;html=1;whiteSpace=wrap;connectable=0;strokeColor=#d79b00;overflow=hidden;fillColor=#ffe6cc;top=0;left=0;bottom=0;right=0;pointerEvents=1;fontSize=15;spacingBottom=0;fontFamily=Times New Roman;" vertex="1" parent="ODvfvK-Vzm__knQPuGtE-42">
          <mxGeometry x="4" width="4" height="9" as="geometry">
            <mxRectangle width="4" height="9" as="alternateBounds" />
          </mxGeometry>
        </mxCell>
        <mxCell id="ODvfvK-Vzm__knQPuGtE-45" value="" style="shape=partialRectangle;html=1;whiteSpace=wrap;connectable=0;strokeColor=#6c8ebf;overflow=hidden;fillColor=#dae8fc;top=0;left=0;bottom=0;right=0;pointerEvents=1;fontSize=15;spacingBottom=0;fontFamily=Times New Roman;" vertex="1" parent="ODvfvK-Vzm__knQPuGtE-42">
          <mxGeometry x="8" width="4" height="9" as="geometry">
            <mxRectangle width="4" height="9" as="alternateBounds" />
          </mxGeometry>
        </mxCell>
        <mxCell id="ODvfvK-Vzm__knQPuGtE-58" style="shape=partialRectangle;html=1;whiteSpace=wrap;connectable=0;strokeColor=#82b366;overflow=hidden;fillColor=#d5e8d4;top=0;left=0;bottom=0;right=0;pointerEvents=1;fontSize=15;spacingBottom=0;fontFamily=Times New Roman;" vertex="1" parent="ODvfvK-Vzm__knQPuGtE-42">
          <mxGeometry x="12" width="4" height="9" as="geometry">
            <mxRectangle width="4" height="9" as="alternateBounds" />
          </mxGeometry>
        </mxCell>
        <mxCell id="ODvfvK-Vzm__knQPuGtE-59" style="shape=partialRectangle;html=1;whiteSpace=wrap;connectable=0;strokeColor=#d6b656;overflow=hidden;fillColor=#fff2cc;top=0;left=0;bottom=0;right=0;pointerEvents=1;fontSize=15;spacingBottom=0;fontFamily=Times New Roman;" vertex="1" parent="ODvfvK-Vzm__knQPuGtE-42">
          <mxGeometry x="16" width="4" height="9" as="geometry">
            <mxRectangle width="4" height="9" as="alternateBounds" />
          </mxGeometry>
        </mxCell>
        <mxCell id="ODvfvK-Vzm__knQPuGtE-60" style="shape=partialRectangle;html=1;whiteSpace=wrap;connectable=0;strokeColor=#9673a6;overflow=hidden;fillColor=#e1d5e7;top=0;left=0;bottom=0;right=0;pointerEvents=1;fontSize=15;spacingBottom=0;fontFamily=Times New Roman;" vertex="1" parent="ODvfvK-Vzm__knQPuGtE-42">
          <mxGeometry x="20" width="4" height="9" as="geometry">
            <mxRectangle width="4" height="9" as="alternateBounds" />
          </mxGeometry>
        </mxCell>
        <mxCell id="ODvfvK-Vzm__knQPuGtE-61" style="shape=partialRectangle;html=1;whiteSpace=wrap;connectable=0;strokeColor=#82b366;overflow=hidden;fillColor=#d5e8d4;top=0;left=0;bottom=0;right=0;pointerEvents=1;fontSize=15;spacingBottom=0;fontFamily=Times New Roman;" vertex="1" parent="ODvfvK-Vzm__knQPuGtE-42">
          <mxGeometry x="24" width="4" height="9" as="geometry">
            <mxRectangle width="4" height="9" as="alternateBounds" />
          </mxGeometry>
        </mxCell>
        <mxCell id="ODvfvK-Vzm__knQPuGtE-62" style="shape=partialRectangle;html=1;whiteSpace=wrap;connectable=0;strokeColor=#BD7000;overflow=hidden;fillColor=#f0a30a;top=0;left=0;bottom=0;right=0;pointerEvents=1;fontSize=15;spacingBottom=0;fontColor=#000000;fontFamily=Times New Roman;" vertex="1" parent="ODvfvK-Vzm__knQPuGtE-42">
          <mxGeometry x="28" width="4" height="9" as="geometry">
            <mxRectangle width="4" height="9" as="alternateBounds" />
          </mxGeometry>
        </mxCell>
        <mxCell id="ODvfvK-Vzm__knQPuGtE-63" style="shape=partialRectangle;html=1;whiteSpace=wrap;connectable=0;strokeColor=#C73500;overflow=hidden;fillColor=#fa6800;top=0;left=0;bottom=0;right=0;pointerEvents=1;fontSize=15;spacingBottom=0;fontColor=#000000;fontFamily=Times New Roman;" vertex="1" parent="ODvfvK-Vzm__knQPuGtE-42">
          <mxGeometry x="32" width="4" height="9" as="geometry">
            <mxRectangle width="4" height="9" as="alternateBounds" />
          </mxGeometry>
        </mxCell>
        <mxCell id="ODvfvK-Vzm__knQPuGtE-64" value="" style="shape=table;startSize=0;container=1;collapsible=0;childLayout=tableLayout;fontSize=15;spacingBottom=0;fontFamily=Times New Roman;" vertex="1" parent="1">
          <mxGeometry x="382" y="65" width="36" height="9" as="geometry" />
        </mxCell>
        <mxCell id="ODvfvK-Vzm__knQPuGtE-65" value="" style="shape=tableRow;horizontal=0;startSize=0;swimlaneHead=0;swimlaneBody=0;strokeColor=inherit;top=0;left=0;bottom=0;right=0;collapsible=0;dropTarget=0;fillColor=none;points=[[0,0.5],[1,0.5]];portConstraint=eastwest;fontSize=15;spacingBottom=0;fontFamily=Times New Roman;" vertex="1" parent="ODvfvK-Vzm__knQPuGtE-64">
          <mxGeometry width="36" height="9" as="geometry" />
        </mxCell>
        <mxCell id="ODvfvK-Vzm__knQPuGtE-66" value="" style="shape=partialRectangle;html=1;whiteSpace=wrap;connectable=0;strokeColor=inherit;overflow=hidden;fillColor=none;top=0;left=0;bottom=0;right=0;pointerEvents=1;fontSize=15;spacingBottom=0;fontFamily=Times New Roman;" vertex="1" parent="ODvfvK-Vzm__knQPuGtE-65">
          <mxGeometry width="4" height="9" as="geometry">
            <mxRectangle width="4" height="9" as="alternateBounds" />
          </mxGeometry>
        </mxCell>
        <mxCell id="ODvfvK-Vzm__knQPuGtE-67" value="" style="shape=partialRectangle;html=1;whiteSpace=wrap;connectable=0;strokeColor=inherit;overflow=hidden;fillColor=none;top=0;left=0;bottom=0;right=0;pointerEvents=1;fontSize=15;spacingBottom=0;fontFamily=Times New Roman;" vertex="1" parent="ODvfvK-Vzm__knQPuGtE-65">
          <mxGeometry x="4" width="4" height="9" as="geometry">
            <mxRectangle width="4" height="9" as="alternateBounds" />
          </mxGeometry>
        </mxCell>
        <mxCell id="ODvfvK-Vzm__knQPuGtE-68" value="" style="shape=partialRectangle;html=1;whiteSpace=wrap;connectable=0;strokeColor=inherit;overflow=hidden;fillColor=none;top=0;left=0;bottom=0;right=0;pointerEvents=1;fontSize=15;spacingBottom=0;fontFamily=Times New Roman;" vertex="1" parent="ODvfvK-Vzm__knQPuGtE-65">
          <mxGeometry x="8" width="4" height="9" as="geometry">
            <mxRectangle width="4" height="9" as="alternateBounds" />
          </mxGeometry>
        </mxCell>
        <mxCell id="ODvfvK-Vzm__knQPuGtE-69" style="shape=partialRectangle;html=1;whiteSpace=wrap;connectable=0;strokeColor=inherit;overflow=hidden;fillColor=none;top=0;left=0;bottom=0;right=0;pointerEvents=1;fontSize=15;spacingBottom=0;fontFamily=Times New Roman;" vertex="1" parent="ODvfvK-Vzm__knQPuGtE-65">
          <mxGeometry x="12" width="4" height="9" as="geometry">
            <mxRectangle width="4" height="9" as="alternateBounds" />
          </mxGeometry>
        </mxCell>
        <mxCell id="ODvfvK-Vzm__knQPuGtE-70" style="shape=partialRectangle;html=1;whiteSpace=wrap;connectable=0;strokeColor=inherit;overflow=hidden;fillColor=none;top=0;left=0;bottom=0;right=0;pointerEvents=1;fontSize=15;spacingBottom=0;fontFamily=Times New Roman;" vertex="1" parent="ODvfvK-Vzm__knQPuGtE-65">
          <mxGeometry x="16" width="4" height="9" as="geometry">
            <mxRectangle width="4" height="9" as="alternateBounds" />
          </mxGeometry>
        </mxCell>
        <mxCell id="ODvfvK-Vzm__knQPuGtE-71" style="shape=partialRectangle;html=1;whiteSpace=wrap;connectable=0;strokeColor=inherit;overflow=hidden;fillColor=none;top=0;left=0;bottom=0;right=0;pointerEvents=1;fontSize=15;spacingBottom=0;fontFamily=Times New Roman;" vertex="1" parent="ODvfvK-Vzm__knQPuGtE-65">
          <mxGeometry x="20" width="4" height="9" as="geometry">
            <mxRectangle width="4" height="9" as="alternateBounds" />
          </mxGeometry>
        </mxCell>
        <mxCell id="ODvfvK-Vzm__knQPuGtE-72" style="shape=partialRectangle;html=1;whiteSpace=wrap;connectable=0;strokeColor=inherit;overflow=hidden;fillColor=none;top=0;left=0;bottom=0;right=0;pointerEvents=1;fontSize=15;spacingBottom=0;fontFamily=Times New Roman;" vertex="1" parent="ODvfvK-Vzm__knQPuGtE-65">
          <mxGeometry x="24" width="4" height="9" as="geometry">
            <mxRectangle width="4" height="9" as="alternateBounds" />
          </mxGeometry>
        </mxCell>
        <mxCell id="ODvfvK-Vzm__knQPuGtE-73" style="shape=partialRectangle;html=1;whiteSpace=wrap;connectable=0;strokeColor=inherit;overflow=hidden;fillColor=none;top=0;left=0;bottom=0;right=0;pointerEvents=1;fontSize=15;spacingBottom=0;fontFamily=Times New Roman;" vertex="1" parent="ODvfvK-Vzm__knQPuGtE-65">
          <mxGeometry x="28" width="4" height="9" as="geometry">
            <mxRectangle width="4" height="9" as="alternateBounds" />
          </mxGeometry>
        </mxCell>
        <mxCell id="ODvfvK-Vzm__knQPuGtE-74" style="shape=partialRectangle;html=1;whiteSpace=wrap;connectable=0;strokeColor=inherit;overflow=hidden;fillColor=none;top=0;left=0;bottom=0;right=0;pointerEvents=1;fontSize=15;spacingBottom=0;fontFamily=Times New Roman;" vertex="1" parent="ODvfvK-Vzm__knQPuGtE-65">
          <mxGeometry x="32" width="4" height="9" as="geometry">
            <mxRectangle width="4" height="9" as="alternateBounds" />
          </mxGeometry>
        </mxCell>
        <mxCell id="ODvfvK-Vzm__knQPuGtE-77" value="" style="endArrow=classic;html=1;rounded=0;endFill=1;strokeWidth=0.5;startSize=6;endSize=4;strokeColor=default;align=center;verticalAlign=middle;fontFamily=Times New Roman;fontSize=11;fontColor=default;labelBackgroundColor=default;" edge="1" parent="1">
          <mxGeometry width="50" height="50" relative="1" as="geometry">
            <mxPoint x="420" y="70" as="sourcePoint" />
            <mxPoint x="442" y="70" as="targetPoint" />
          </mxGeometry>
        </mxCell>
        <mxCell id="ODvfvK-Vzm__knQPuGtE-78" value="" style="endArrow=classic;html=1;rounded=0;endFill=1;strokeWidth=0.7;startSize=6;endSize=4;strokeColor=default;align=center;verticalAlign=middle;fontFamily=Times New Roman;fontSize=11;fontColor=default;labelBackgroundColor=default;" edge="1" parent="1">
          <mxGeometry width="50" height="50" relative="1" as="geometry">
            <mxPoint x="481" y="71" as="sourcePoint" />
            <mxPoint x="516" y="105.77" as="targetPoint" />
          </mxGeometry>
        </mxCell>
        <mxCell id="ODvfvK-Vzm__knQPuGtE-79" value="1x1x C" style="text;html=1;align=center;verticalAlign=middle;resizable=0;points=[];autosize=1;strokeColor=none;fillColor=none;fontSize=7;fontFamily=Times New Roman;" vertex="1" parent="1">
          <mxGeometry x="380" y="75.01" width="40" height="20" as="geometry" />
        </mxCell>
        <mxCell id="ODvfvK-Vzm__knQPuGtE-80" value="1x1x C" style="text;html=1;align=center;verticalAlign=middle;resizable=0;points=[];autosize=1;strokeColor=none;fillColor=none;fontSize=7;fontFamily=Times New Roman;" vertex="1" parent="1">
          <mxGeometry x="440" y="75.01" width="40" height="20" as="geometry" />
        </mxCell>
        <mxCell id="ODvfvK-Vzm__knQPuGtE-81" value="F&lt;sub&gt;sq&lt;/sub&gt;(·)" style="text;html=1;align=center;verticalAlign=middle;resizable=0;points=[];autosize=1;strokeColor=none;fillColor=none;fontSize=8;fontFamily=Times New Roman;" vertex="1" parent="1">
          <mxGeometry x="335" y="67" width="40" height="30" as="geometry" />
        </mxCell>
        <mxCell id="ODvfvK-Vzm__knQPuGtE-82" value="F&lt;sub&gt;ex&lt;/sub&gt;(·,W)" style="text;html=1;align=center;verticalAlign=middle;resizable=0;points=[];autosize=1;strokeColor=none;fillColor=none;fontSize=8;fontFamily=Times New Roman;" vertex="1" parent="1">
          <mxGeometry x="405" y="44" width="50" height="30" as="geometry" />
        </mxCell>
        <mxCell id="ODvfvK-Vzm__knQPuGtE-83" value="F&lt;sub&gt;scale&lt;/sub&gt;(·,·)" style="text;html=1;align=center;verticalAlign=middle;resizable=0;points=[];autosize=1;strokeColor=none;fillColor=none;fontSize=8;fontFamily=Times New Roman;" vertex="1" parent="1">
          <mxGeometry x="469" y="95" width="50" height="30" as="geometry" />
        </mxCell>
      </root>
    </mxGraphModel>
  </diagram>
</mxfile>
